<svg xmlns="http://www.w3.org/2000/svg" style="display: none;">
  <!-- GitHub -->
  <symbol id="github" viewBox="0 0 24 24">
    <path d="M12 .297c-6.627 0-12 5.373-12 12 0 5.303 3.438 9.8 8.207 11.4.6.111.827-.258.827-.577 0-.283-.01-1.034-.017-2.028-3.338.725-4.042-1.611-4.042-1.611-.545-1.379-1.333-1.743-1.333-1.743-1.088-.743.082-.728.082-.728 1.207.085 1.842 1.242 1.842 1.242 1.072 1.836 2.809 1.305 3.493 1.001.108-.778.419-1.305.762-1.605-2.665-.303-5.467-1.332-5.467-5.928 0-1.31.468-2.381 1.236-3.221-.124-.303-.537-1.528.117-3.177 0 0 1.008-.323 3.301 1.23.957-.266 1.988-.398 3.015-.403 1.028.005 2.058.137 3.015.403 2.29-1.55 3.297-1.23 3.297-1.23.656 1.649.246 2.874.122 3.177.768.84 1.236 1.911 1.236 3.221 0 4.608-2.807 5.623-5.48 5.921.43.371.822 1.098.822 2.215 0 1.594-.014 2.874-.017 3.261 0 .323.224.693.832.576 4.764-1.606 8.204-6.091 8.204-11.398 0-6.627-5.373-12-12-12z"/>
  </symbol>

  <!-- LinkedIn -->
  <symbol id="linkedin" viewBox="0 0 24 24">
  <path d="M22.23 0h-20.5c-.95 0-1.73.78-1.73 1.73v20.5c0 .95.78 1.73 1.73 1.73h20.5c.95 0 1.73-.78 1.73-1.73v-20.5c0-.95-.78-1.73-1.73-1.73zm-14.27 20.44h-3.74v-11.16h3.74v11.16zm-1.87-12.75c-1.2 0-2.18-.98-2.18-2.18s.98-2.18 2.18-2.18 2.18.98 2.18 2.18c0 1.2-.98 2.18-2.18 2.18zm13.07 12.75h-3.74v-5.75c0-1.37-.02-3.13-1.91-3.13-1.9 0-2.19 1.48-2.19 3.01v5.87h-3.74v-11.16h3.59v1.52h.05c.5-.95 1.72-1.95 3.54-1.95 3.78 0 4.48 2.48 4.48 5.71v6.88z"/>
</symbol>


  <!-- Instagram -->
  <symbol id="instagram" viewBox="0 0 24 24">
  <path d="M224.1 141c-63.6 0-114.9 51.3-114.9 114.9s51.3 114.9 114.9 114.9S339 319.5 339 255.9 287.7 141 224.1 141zm0 189.6c-41.1 0-74.7-33.5-74.7-74.7s33.5-74.7 74.7-74.7 74.7 33.5 74.7 74.7-33.6 74.7-74.7 74.7zm146.4-194.3c0 14.9-12 26.8-26.8 26.8-14.9 0-26.8-12-26.8-26.8s12-26.8 26.8-26.8 26.8 12 26.8 26.8zm76.1 27.2c-1.7-35.9-9.9-67.7-36.2-93.9-26.2-26.2-58-34.4-93.9-36.2-37-2.1-147.9-2.1-184.9 0-35.8 1.7-67.6 9.9-93.9 36.1s-34.4 58-36.2 93.9c-2.1 37-2.1 147.9 0 184.9 1.7 35.9 9.9 67.7 36.2 93.9s58 34.4 93.9 36.2c37 2.1 147.9 2.1 184.9 0 35.9-1.7 67.7-9.9 93.9-36.2 26.2-26.2 34.4-58 36.2-93.9 2.1-37 2.1-147.8 0-184.8zM398.8 388c-7.8 19.6-22.9 34.7-42.6 42.6-29.5 11.7-99.5 9-132.1 9s-102.7 2.6-132.1-9c-19.6-7.8-34.7-22.9-42.6-42.6-11.7-29.5-9-99.5-9-132.1s-2.6-102.7 9-132.1c7.8-19.6 22.9-34.7 42.6-42.6 29.5-11.7 99.5-9 132.1-9s102.7-2.6 132.1 9c19.6 7.8 34.7 22.9 42.6 42.6 11.7 29.5 9 99.5 9 132.1s2.7 102.7-9 132.1z"/>
</symbol>

  <!-- Moon icon -->
  <symbol id='moon' viewBox='0 0 24 24'>
  <path stroke-linecap="round" stroke-linejoin="round" d="M21.752 15.002A9.72 9.72 0 0 1 18 15.75c-5.385 0-9.75-4.365-9.75-9.75 0-1.33.266-2.597.748-3.752A9.753 9.753 0 0 0 3 11.25C3 16.635 7.365 21 12.75 21a9.753 9.753 0 0 0 9.002-5.998Z" />
</symbol>

  <!-- Sun icon -->
  <symbol id='sun' viewBox='0 0 24 24'>
  <path stroke-linecap="round" stroke-linejoin="round" d="M12 3v2.25m6.364.386-1.591 1.591M21 12h-2.25m-.386 6.364-1.591-1.591M12 18.75V21m-4.773-4.227-1.591 1.591M5.25 12H3m4.227-4.773L5.636 5.636M15.75 12a3.75 3.75 0 1 1-7.5 0 3.75 3.75 0 0 1 7.5 0Z" />
</symbol>

 <!-- Search icon -->
  <symbol id='search' viewBox='0 0 24 24'>
  <path stroke-linecap="round" stroke-linejoin="round" d="m21 21-5.197-5.197m0 0A7.5 7.5 0 1 0 5.196 5.196a7.5 7.5 0 0 0 10.607 10.607Z" />
</symbol>

 <!-- Code icon -->
  <symbol id='code' viewBox='0 0 24 24'>
  <path d="M392.8 1.2c-17-4.9-34.7 5-39.6 22l-128 448c-4.9 17 5 34.7 22 39.6s34.7-5 39.6-22l128-448c4.9-17-5-34.7-22-39.6zm80.6 120.1c-12.5 12.5-12.5 32.8 0 45.3L562.7 256l-89.4 89.4c-12.5 12.5-12.5 32.8 0 45.3s32.8 12.5 45.3 0l112-112c12.5-12.5 12.5-32.8 0-45.3l-112-112c-12.5-12.5-32.8-12.5-45.3 0zm-306.7 0c-12.5-12.5-32.8-12.5-45.3 0l-112 112c-12.5 12.5-12.5 32.8 0 45.3l112 112c12.5 12.5 32.8 12.5 45.3 0s12.5-32.8 0-45.3L77.3 256l89.4-89.4c12.5-12.5 12.5-32.8 0-45.3z"/>
</symbol>










 
</svg>
