<svg xmlns="http://www.w3.org/2000/svg" style="display: none;">
  <!-- GitHub -->
  <symbol id="github" viewBox="0 0 24 24">
    <path d="M12 .297c-6.627 0-12 5.373-12 12 0 5.303 3.438 9.8 8.207 11.4.6.111.827-.258.827-.577 0-.283-.01-1.034-.017-2.028-3.338.725-4.042-1.611-4.042-1.611-.545-1.379-1.333-1.743-1.333-1.743-1.088-.743.082-.728.082-.728 1.207.085 1.842 1.242 1.842 1.242 1.072 1.836 2.809 1.305 3.493 1.001.108-.778.419-1.305.762-1.605-2.665-.303-5.467-1.332-5.467-5.928 0-1.31.468-2.381 1.236-3.221-.124-.303-.537-1.528.117-3.177 0 0 1.008-.323 3.301 1.23.957-.266 1.988-.398 3.015-.403 1.028.005 2.058.137 3.015.403 2.29-1.55 3.297-1.23 3.297-1.23.656 1.649.246 2.874.122 3.177.768.84 1.236 1.911 1.236 3.221 0 4.608-2.807 5.623-5.48 5.921.43.371.822 1.098.822 2.215 0 1.594-.014 2.874-.017 3.261 0 .323.224.693.832.576 4.764-1.606 8.204-6.091 8.204-11.398 0-6.627-5.373-12-12-12z"/>
  </symbol>

  <!-- LinkedIn -->
  <symbol id="linkedin" viewBox="0 0 24 24">
    <path d="M22.23 0h-20.5c-.95 0-1.73.78-1.73 1.73v20.5c0 .95.78 1.73 1.73 1.73h20.5c.95 0 1.73-.78 1.73-1.73v-20.5c0-.95-.78-1.73-1.73-1.73zm-14.27 20.44h-3.74v-11.16h3.74v11.16zm-1.87-12.75c-1.2 0-2.18-.98-2.18-2.18s.98-2.18 2.18-2.18 2.18.98 2.18 2.18c0 1.2-.98 2.18-2.18 2.18zm13.07 12.75h-3.74v-5.75c0-1.37-.02-3.13-1.91-3.13-1.9 0-2.19 1.48-2.19 3.01v5.87h-3.74v-11.16h3.59v1.52h.05c.5-.95 1.72-1.95 3.54-1.95 3.78 0 4.48 2.48 4.48 5.71v6.88z"/>
  </symbol>

  <!-- Instagram -->
  <symbol id="instagram" viewBox="0 0 24 24">
    <path d="M12 0c-6.627 0-12 5.373-12 12s5.373 12 12 12 12-5.373 12-12-5.373-12-12-12zm6.406 6.406c.046 0 .091.002.137.005.233.008.463.016.688.042 1.017.084 1.778.72 1.778 1.777 0 .195-.005.39-.014.584-.005.113-.013.225-.022.337-.036.394-.095.786-.194 1.172-.192.651-.604 1.213-1.098 1.64-.651.491-1.486.736-2.308.739-1.471.002-2.93-.017-4.392-.017s-2.921.018-4.392.017c-.822-.003-1.657-.248-2.308-.739-.493-.427-.906-.99-1.098-1.64-.099-.386-.158-.778-.194-1.172-.009-.113-.017-.225-.022-.337-.008-.195-.014-.39-.014-.584 0-1.057.762-1.693 1.778-1.777.226-.026.455-.034.688-.042.046-.003.091-.005.137-.005zm-.06 10.883c0 .346-.028.686-.078 1.018-.01.062-.025.124-.037.186-.028.139-.062.275-.096.412-.045.184-.101.367-.178.544-.141.347-.347.654-.598.936-.546.546-1.25.847-2.006.86-.048.001-.098.001-.147.001-1.31 0-2.527-.633-3.292-1.674-.264-.387-.468-.822-.573-1.304-.075-.352-.087-.697-.093-1.043-.005-.426-.005-.853-.005-1.281s0-.853.005-1.281c.005-.346.018-.691.093-1.043.105-.482.309-.917.573-1.304.765-1.041 1.983-1.674 3.292-1.674.049 0 .099 0 .147.001.757.013 1.46.313 2.006.86.251.282.457.589.598.936.078.183.134.366.178.544.034.137.068.273.096.412.012.062.027.124.037.186.05.332.078.672.078 1.018zm-6.388-6.14c-1.36 0-2.42 1.058-2.42 2.419 0 1.36 1.058 2.419 2.42 2.419 1.36 0 2.419-1.058 2.419-2.419 0-1.36-1.059-2.419-2.419-2.419zm6.406 10.008c-.045-.035-.075-.079-.114-.114-.013.026-.027.052-.042.077-.067.127-.136.251-.225.368-.1.132-.204.261-.319.373-.133.127-.288.237-.463.309-.177.069-.37.1-.56.1-.236 0-.471-.043-.692-.131-.213-.083-.406-.222-.563-.39-.145-.145-.292-.292-.39-.563-.087-.221-.131-.456-.131-.692 0-.19.031-.383.1-.56.072-.175.182-.33.309-.463.112-.115.241-.219.373-.319.117-.088.241-.158.368-.225.025-.014.051-.028.077-.042.036-.039.079-.069.114-.114.014.026.028.052.042.078.067.127.136.251.225.368.1.132.204.261.319.373.133.127.288.237.463.309.177.069.37.1.56.1.236 0 .471-.043.692-.131.213-.083.406-.222.563-.39.145-.145.292-.292.39-.563.087-.221.131-.456.131-.692 0-.19-.031-.383-.1-.56-.072-.175-.182-.33-.309-.463-.112-.115-.241-.219-.373-.319-.117-.088-.241-.158-.368-.225-.025-.014-.051-.028-.077-.042-.036-.039-.079-.069-.114-.114z"/>
  </symbol>

  <!-- Search -->
  <symbol id="search" viewBox="0 0 24 24">
    <path d="M21.71 20.29l-5.12-5.12c1.45-2.3 1.12-5.57-1.12-7.14-2.29-1.56-5.49-1.56-7.78 0-2.29 1.56-2.29 4.08 0 5.64 2.29 1.56 5.49 1.56 7.78 0 1.45-1.56 1.68-3.84.39-5.57-1.29-1.73-3.53-2.79-5.84-2.79-3.41 0-6.48 1.6-8.38 4.28-1.83 2.5-2.43 5.73-1.73 8.51.12.38.18.76.42 1.07 1.83 2.5 5.48 3.16 8.58 1.79.28-.13.56-.26.83-.39 1.5-.77 3.4-2.16 4.14-3.68l5.12 5.12c.39.39 1.03.39 1.42 0 .39-.39.39-1.03 0-1.42zm-11.21-3.58c-2.52 0-4.51-2-4.51-4.51s2-4.51 4.51-4.51 4.51 2 4.51 4.51-2 4.51-4.51 4.51z"/>
  </symbol>

  <!-- Sun -->
  <symbol id="sun" viewBox="0 0 512 512">
    <path d="M12 2a1 1 0 00-1 1v2a1 1 0 002 0V3a1 1 0 00-1-1zm6.364 4.636a1 1 0 00-1.414 0L15 7.586a1 1 0 001.414 1.414l2.95-2.95a1 1 0 000-1.414zM21 12a1 1 0 00-1-1h-2a1 1 0 000 2h2a1 1 0 001-1zm-4.364 6.364a1 1 0 000-1.414l-2.95-2.95a1 1 0 00-1.414 1.414l2.95 2.95a1 1 0 001.414 0zm-6.364 4.636a1 1 0 001-1v-2a1 1 0 00-2 0v2a1 1 0 001 1zm-7-7a1 1 0 011-1h2a1 1 0 000-2H3a1 1 0 00-1 1v2a1 1 0 001 1zm1.636-7.636a1 1 0 00-1.414 0L3 9.586A1 1 0 004.414 11l2.95-2.95a1 1 0 000-1.414zM12 7a5 5 0 100 10 5 5 0 000-10zm0 8a3 3 0 110-6 3 3 0 010 6z"/>
  </symbol>

  <!-- Code -->
  <symbol id="code" viewBox="0 0 24 24">
    <path d="M10.8 4.2l-4.8 4.8 4.8 4.8 1.4-1.4-2.4-2.4 2.4-2.4-1.4-1.4zm6.4 0l-1.4 1.4 2.4 2.4-2.4 2.4 1.4 1.4 4.8-4.8-4.8-4.8zm-6.4 10.8l-4.8-4.8-4.8 4.8 4.8 4.8 1.4-1.4-2.4-2.4 2.4-2.4 1.4 1.4zm6.4 0l-1.4-1.4 2.4-2.4-2.4-2.4 1.4-1.4 4.8 4.8-4.8 4.8z"/>
  </symbol>

  <!-- Moon -->
  <symbol id="moon" viewBox="0 0 24 24">
    <path d="M12 0c-6.627 0-12 5.373-12 12 0 6.627 5.373 12 12 12 3.319 0 6.303-1.292 8.536-3.394-2.042-1.004-3.536-3.083-3.536-5.606 0-3.313 2.687-6 6-6-1.291-1.909-3.291-3.5-5.464-3.5-4.407 0-8 3.593-8 8 0 2.623 1.492 4.609 3.604 5.531-1.596 3.418-4.365 5.469-8.604 5.469-3.134 0-6.293-1.287-8.176-3.474 2.775 2.204 6.369 3.474 10 3.474 6.627 0 12-5.373 12-12 0-1.645-.264-3.214-.732-4.72-2.836.017-5.393 1.196-7.145 3.042-1.092 1.177-1.925 2.667-2.485 4.305.218.052.441.094.663.094 4.407 0 8-3.593 8-8 0-3.313-2.687-6-6-6z"/>
  </symbol>
</svg>
